<svg width="27" height="26" viewBox="0 0 27 26" fill="none" xmlns="http://www.w3.org/2000/svg">
<path d="M24.1661 23.5167C24.1661 22.9643 23.9468 22.4345 23.5562 22.0439C23.1657 21.6532 22.6361 21.4337 22.0836 21.4333C21.5312 21.4332 21.0014 21.6524 20.6106 22.0427C20.2197 22.433 19.9998 22.9626 19.9995 23.5152C19.999 24.0675 20.2181 24.5975 20.6083 24.9883C20.9985 25.3793 21.5281 25.5994 22.0805 25.6C22.6333 25.6 23.1635 25.3805 23.5545 24.9899C23.9455 24.5993 24.1655 24.0693 24.1662 23.5167H24.1661Z" fill="black"/>
<path d="M12.0836 23.5167C12.0836 22.9642 11.8641 22.4342 11.4734 22.0435C11.0827 21.6529 10.5527 21.4333 10.0002 21.4333C9.4477 21.4333 8.91774 21.6529 8.52705 22.0435C8.13636 22.4342 7.91699 22.9642 7.91699 23.5167C7.91699 24.0692 8.13637 24.5991 8.52705 24.9898C8.91774 25.3805 9.4477 25.6 10.0002 25.6C10.5526 25.5993 11.0822 25.3796 11.4728 24.9891C11.8633 24.5984 12.083 24.069 12.0837 23.5166L12.0836 23.5167Z" fill="black"/>
<mask id="path-3-outside-1_88_31" maskUnits="userSpaceOnUse" x="0" y="0.0166626" width="27" height="19" fill="black">
<rect fill="white" y="0.0166626" width="27" height="19"/>
<path fill-rule="evenodd" clip-rule="evenodd" d="M25.37 6.02633C25.5638 6.02712 25.7461 6.13985 25.8613 6.33L25.8612 6.33014C25.9817 6.51009 26.0271 6.74837 25.9841 6.97514L24.1022 16.2369C23.9703 16.8879 23.6638 17.4662 23.2314 17.8792C22.799 18.2925 22.2656 18.5169 21.7167 18.5167H10.4311C9.87923 18.5167 9.34319 18.2894 8.90976 17.8717C8.47656 17.454 8.17096 16.8701 8.04269 16.2144L6.3216 7.44493L6.32168 7.44477L6.15771 6.60006C6.15772 6.6 6.15774 6.59994 6.15775 6.59989H6.15768L6.15271 6.5743L6.1525 6.57417L5.41464 2.80518C5.38123 2.63229 5.25317 2.51171 5.10776 2.51641H1.61395C1.27497 2.51641 1 2.18085 1 1.76654C1 1.3525 1.27495 1.01666 1.61395 1.01666H5.10776C5.44909 1.0185 5.78019 1.15921 6.04873 1.41659C6.31727 1.67398 6.50786 2.03334 6.59052 2.43772L7.29356 6.02633H25.37ZM22.4762 16.6846C22.6919 16.4809 22.8459 16.1955 22.9142 15.873L24.5929 7.52584H7.5882L9.22151 15.8469C9.28576 16.1746 9.43845 16.4665 9.65517 16.6755C9.87188 16.8842 10.1398 16.998 10.4158 16.998H21.7229C21.9955 16.9985 22.2606 16.8884 22.4762 16.6846Z"/>
</mask>
<path fill-rule="evenodd" clip-rule="evenodd" d="M25.37 6.02633C25.5638 6.02712 25.7461 6.13985 25.8613 6.33L25.8612 6.33014C25.9817 6.51009 26.0271 6.74837 25.9841 6.97514L24.1022 16.2369C23.9703 16.8879 23.6638 17.4662 23.2314 17.8792C22.799 18.2925 22.2656 18.5169 21.7167 18.5167H10.4311C9.87923 18.5167 9.34319 18.2894 8.90976 17.8717C8.47656 17.454 8.17096 16.8701 8.04269 16.2144L6.3216 7.44493L6.32168 7.44477L6.15771 6.60006C6.15772 6.6 6.15774 6.59994 6.15775 6.59989H6.15768L6.15271 6.5743L6.1525 6.57417L5.41464 2.80518C5.38123 2.63229 5.25317 2.51171 5.10776 2.51641H1.61395C1.27497 2.51641 1 2.18085 1 1.76654C1 1.3525 1.27495 1.01666 1.61395 1.01666H5.10776C5.44909 1.0185 5.78019 1.15921 6.04873 1.41659C6.31727 1.67398 6.50786 2.03334 6.59052 2.43772L7.29356 6.02633H25.37ZM22.4762 16.6846C22.6919 16.4809 22.8459 16.1955 22.9142 15.873L24.5929 7.52584H7.5882L9.22151 15.8469C9.28576 16.1746 9.43845 16.4665 9.65517 16.6755C9.87188 16.8842 10.1398 16.998 10.4158 16.998H21.7229C21.9955 16.9985 22.2606 16.8884 22.4762 16.6846Z" fill="black"/>
<path d="M25.8613 6.33L25.9717 6.43149L26.0479 6.34858L25.9896 6.25227L25.8613 6.33ZM25.37 6.02633L25.3707 5.87633H25.37V6.02633ZM25.8612 6.33014L25.7507 6.22865L25.6709 6.31556L25.7366 6.41363L25.8612 6.33014ZM25.9841 6.97514L26.1311 7.00502L26.1315 7.00312L25.9841 6.97514ZM24.1022 16.2369L23.9552 16.2071L23.9551 16.2071L24.1022 16.2369ZM23.2314 17.8792L23.1278 17.7708L23.1278 17.7708L23.2314 17.8792ZM21.7167 18.5167L21.7168 18.3667H21.7167V18.5167ZM8.90976 17.8717L8.80564 17.9796L8.80567 17.9797L8.90976 17.8717ZM8.04269 16.2144L8.1899 16.1856L8.18988 16.1855L8.04269 16.2144ZM6.3216 7.44493L6.18542 7.38205L6.16505 7.42615L6.17441 7.47382L6.3216 7.44493ZM6.32168 7.44477L6.45786 7.50765L6.47816 7.4637L6.46893 7.41618L6.32168 7.44477ZM6.15771 6.60006L6.01125 6.56765L6.00452 6.59806L6.01046 6.62864L6.15771 6.60006ZM6.15775 6.59989L6.30421 6.6323L6.34458 6.44989H6.15775V6.59989ZM6.15768 6.59989L6.01042 6.62847L6.03399 6.74989H6.15768V6.59989ZM6.15271 6.5743L6.29996 6.54571L6.28714 6.47969L6.22932 6.44533L6.15271 6.5743ZM6.1525 6.57417L6.0053 6.60299L6.01819 6.66886L6.07589 6.70313L6.1525 6.57417ZM5.41464 2.80518L5.26736 2.83363L5.26744 2.83399L5.41464 2.80518ZM5.10776 2.51641V2.66649L5.11262 2.66634L5.10776 2.51641ZM5.10776 1.01666L5.10857 0.866663H5.10776V1.01666ZM6.04873 1.41659L6.15252 1.3083L6.15252 1.3083L6.04873 1.41659ZM6.59052 2.43772L6.73773 2.40888L6.73749 2.40768L6.59052 2.43772ZM7.29356 6.02633L7.14636 6.05516L7.1701 6.17633H7.29356V6.02633ZM22.9142 15.873L23.0609 15.9041L23.0612 15.9026L22.9142 15.873ZM22.4762 16.6846L22.3732 16.5756L22.3732 16.5756L22.4762 16.6846ZM24.5929 7.52584L24.74 7.55542L24.7761 7.37584H24.5929V7.52584ZM7.5882 7.52584V7.37584H7.40589L7.44101 7.55474L7.5882 7.52584ZM9.22151 15.8469L9.36871 15.818L9.3687 15.818L9.22151 15.8469ZM9.65517 16.6755L9.55104 16.7835L9.55111 16.7835L9.65517 16.6755ZM21.7229 16.998L21.7232 16.848H21.7229V16.998ZM25.9896 6.25227C25.8521 6.02529 25.6253 5.87737 25.3707 5.87633L25.3694 6.17632C25.5024 6.17687 25.6401 6.25441 25.733 6.40773L25.9896 6.25227ZM25.9716 6.43163L25.9717 6.43149L25.7509 6.22851L25.7507 6.22865L25.9716 6.43163ZM26.1315 7.00312C26.1813 6.74046 26.1298 6.46163 25.9858 6.24665L25.7366 6.41363C25.8336 6.55855 25.873 6.75629 25.8367 6.94717L26.1315 7.00312ZM24.2492 16.2668L26.1311 7.00501L25.8371 6.94528L23.9552 16.2071L24.2492 16.2668ZM23.335 17.9877C23.792 17.5512 24.1119 16.9442 24.2492 16.2667L23.9551 16.2071C23.8286 16.8316 23.5355 17.3813 23.1278 17.7708L23.335 17.9877ZM21.7167 18.6667C22.3078 18.6669 22.8775 18.425 23.3351 17.9877L23.1278 17.7708C22.7206 18.16 22.2234 18.3669 21.7168 18.3667L21.7167 18.6667ZM10.4311 18.6667H21.7167V18.3667H10.4311V18.6667ZM8.80567 17.9797C9.26427 18.4216 9.8367 18.6667 10.4311 18.6667V18.3667C9.92176 18.3667 9.42211 18.1571 9.01385 17.7636L8.80567 17.9797ZM7.89548 16.2432C8.02899 16.9257 8.3479 17.5383 8.80564 17.9796L9.01387 17.7637C8.60522 17.3696 8.31294 16.8146 8.1899 16.1856L7.89548 16.2432ZM6.17441 7.47382L7.8955 16.2433L8.18988 16.1855L6.46879 7.41605L6.17441 7.47382ZM6.1855 7.38188L6.18542 7.38205L6.45778 7.50782L6.45786 7.50765L6.1855 7.38188ZM6.01046 6.62864L6.17443 7.47335L6.46893 7.41618L6.30496 6.57148L6.01046 6.62864ZM6.01129 6.56747L6.01125 6.56765L6.30417 6.63247L6.30421 6.6323L6.01129 6.56747ZM6.15768 6.74989H6.15775V6.44989H6.15768V6.74989ZM6.00546 6.60288L6.01042 6.62847L6.30493 6.5713L6.29996 6.54571L6.00546 6.60288ZM6.07589 6.70313L6.0761 6.70326L6.22932 6.44533L6.22911 6.44521L6.07589 6.70313ZM5.26744 2.83399L6.0053 6.60299L6.29971 6.54535L5.56185 2.77636L5.26744 2.83399ZM5.11262 2.66634C5.16404 2.66467 5.2437 2.71115 5.26737 2.83363L5.56192 2.77672C5.51877 2.55343 5.3423 2.35874 5.10291 2.36649L5.11262 2.66634ZM1.61395 2.66641H5.10776V2.36641H1.61395V2.66641ZM0.85 1.76654C0.85 2.23429 1.1655 2.66641 1.61395 2.66641V2.36641C1.38443 2.36641 1.15 2.12741 1.15 1.76654H0.85ZM1.61395 0.866663C1.16545 0.866663 0.85 1.29911 0.85 1.76654H1.15C1.15 1.4059 1.38445 1.16666 1.61395 1.16666V0.866663ZM5.10776 0.866663H1.61395V1.16666H5.10776V0.866663ZM6.15252 1.3083C5.85897 1.02695 5.4919 0.868725 5.10857 0.866665L5.10696 1.16666C5.40627 1.16827 5.70141 1.29147 5.94494 1.52488L6.15252 1.3083ZM6.73749 2.40768C6.64942 1.97688 6.44548 1.58909 6.15252 1.3083L5.94494 1.52488C6.18906 1.75887 6.3663 2.08981 6.44356 2.46776L6.73749 2.40768ZM7.44077 5.99749L6.73773 2.40888L6.44332 2.46656L7.14636 6.05516L7.44077 5.99749ZM25.37 5.87633H7.29356V6.17633H25.37V5.87633ZM22.7674 15.8419C22.7047 16.1381 22.5643 16.3951 22.3732 16.5756L22.5793 16.7937C22.8195 16.5667 22.987 16.253 23.0609 15.9041L22.7674 15.8419ZM24.4459 7.49627L22.7671 15.8434L23.0612 15.9026L24.74 7.55542L24.4459 7.49627ZM7.5882 7.67584H24.5929V7.37584H7.5882V7.67584ZM9.3687 15.818L7.73539 7.49695L7.44101 7.55474L9.07432 15.8758L9.3687 15.818ZM9.75929 16.5675C9.56712 16.3822 9.42773 16.119 9.36871 15.818L9.07431 15.8757C9.14379 16.2301 9.30978 16.5508 9.55104 16.7835L9.75929 16.5675ZM10.4158 16.848C10.1824 16.848 9.95082 16.752 9.75922 16.5674L9.55111 16.7835C9.79295 17.0164 10.0972 17.148 10.4158 17.148V16.848ZM21.7229 16.848H10.4158V17.148H21.7229V16.848ZM22.3732 16.5756C22.1829 16.7555 21.9539 16.8484 21.7232 16.848L21.7226 17.148C22.0371 17.1486 22.3383 17.0213 22.5793 16.7937L22.3732 16.5756Z" fill="black" mask="url(#path-3-outside-1_88_31)"/>
</svg>
